# xmcd
#
# Track frame offsets: 
#        150
#        14345
#        25150
#        37455
#        47712
#        60152
#        72075
#        84485
#        95980
#        108232
#        118350
#        131330
#        141182
#        151652
#        165475
#        178582
#        190897
#        204725
#        218817
#        235537
#        250415
#        262007
#        274655
#        288645
#
# Disc length: 3976 seconds
#
# Revision: 2
# Processed by: cddbd v1.5.2PL0 Copyright (c) Steve Scherf et al.
# Submitted via: ExactAudioCopy v1.1
#
DISCID=600f8618
DTITLE=Loretta Lynn - Honky Tonk Girl (The Loretta Lynn Collection) - 
DTITLE=Disc 3
DYEAR=1994
DGENRE=Country
TTITLE0=Conway Twitty and Loretta Lynn - Back Street Affair
TTITLE1=Blueberry Hill
TTITLE2=The Morning After Baby Let Me Down
TTITLE3=It'll Feel Good After It Quits Hurtin'
TTITLE4=Here I Am Again
TTITLE5=The Pill
TTITLE6=Ain't It Funny
TTITLE7=Love Is The Foundation
TTITLE8=Loretta Lynn and Conway Twitty - As Soon As I Hang Up The Phone
TTITLE9=What Sundown Does To You
TTITLE10=Hey Loretta
TTITLE11=Trouble In Paradise
TTITLE12=They Don't Make 'Em Like My Daddy Anymore
TTITLE13=When The Tingle Becomes A Chill
TTITLE14=Loretta Lynn and Conway Twitty - The Letter
TTITLE15=Out Of My Head And Back In My Bed
TTITLE16=Somebody Somewhere (Don't Know What He's Missin' Tonight)
TTITLE17=She's Got You
TTITLE18=Why Can't He Be You
TTITLE19=I Can't Feel You Anymore
TTITLE20=Loretta Lynn and Conway Twitty - You're The Reason Our Kids Are
TTITLE20=Ugly
TTITLE21=I've Got A Picture Of Us On My Mind
TTITLE22=I Lie
TTITLE23=Who Was That Stranger
EXTD=
EXTT0=
EXTT1=
EXTT2=
EXTT3=
EXTT4=
EXTT5=
EXTT6=
EXTT7=
EXTT8=
EXTT9=
EXTT10=
EXTT11=
EXTT12=
EXTT13=
EXTT14=
EXTT15=
EXTT16=
EXTT17=
EXTT18=
EXTT19=
EXTT20=
EXTT21=
EXTT22=
EXTT23=
PLAYORDER=
